<svg width="484" height="73" viewBox="0 0 484 73" fill="none" xmlns="http://www.w3.org/2000/svg">
<g clip-path="url(#clip0_586_2437)">
<path d="M342.365 9.43863C345.148 9.4133 348.869 9.0841 351.539 9.38436C353.282 9.57972 354.219 10.9671 355.238 12.1916C361.819 20.0889 367.709 28.6337 374.156 36.645C374.704 38.4465 371.952 39.067 372.074 39.6204C375.592 42.3391 378.253 45.2875 379.326 49.7227C381.426 58.4013 377.991 66.3945 369.836 70.0935C364.796 72.3798 360.422 72.6457 354.979 72.7796C344.303 73.0437 333.523 72.6403 322.861 72.6819L322.456 72.1827C322.216 51.5966 322.25 30.9128 322.44 10.3177C322.579 9.8637 322.784 9.54354 323.306 9.5562C329.658 9.66654 336.031 9.4947 342.362 9.43682L342.365 9.43863ZM341.085 24.4138C340.765 24.5657 340.484 24.8352 340.417 25.1934C340.569 27.4634 340.198 30.0084 340.405 32.2405C340.457 32.8175 340.504 33.2751 341.126 33.5067C345.495 33.4036 350.298 33.9173 354.621 33.5935C362.056 33.0364 361.247 24.8804 355.345 24.3704L341.087 24.4156L341.085 24.4138ZM341.085 47.1668C340.705 47.3495 340.403 47.6733 340.405 48.1128C340.645 51.0738 340.119 54.4346 340.403 57.3432C340.457 57.9003 340.528 58.206 341.085 58.4683L356.582 58.4845C363.749 57.7375 363.298 47.6262 356.43 47.1234L341.087 47.1686L341.085 47.1668Z" fill="white"/>
<path d="M140.707 72.0505C140.652 72.1029 140.131 72.0541 139.981 71.9618L123.628 51.0864C122.927 50.1838 122.539 49.0822 122.431 47.9481V11.4553C122.491 10.6594 122.476 9.86535 123.424 9.73874C126.13 9.37878 130.303 9.78938 133.209 9.75501C135.238 9.7315 136.83 9.04958 138.628 10.6504L163.774 42.9738C164.409 41.6968 163.899 40.0616 163.856 38.7376C163.807 37.229 164.011 35.7042 163.675 34.2228C164.196 26.9622 163.005 18.7864 163.675 11.6344C163.758 10.7426 164.053 9.90695 165.048 9.75501C168.246 9.26664 171.607 9.67724 174.8 9.75321C176.563 9.79481 179.584 9.46018 181.133 9.7514C181.375 9.79662 181.558 9.88525 181.681 10.1059L181.779 71.6055C181.695 72.6148 181.605 72.6944 180.603 72.7794C177.244 73.0598 170.719 73.0851 167.381 72.7794C167.019 72.7469 166.697 72.7541 166.403 72.4918C157.678 61.7167 149.545 50.4171 140.707 39.7234V72.0487V72.0505Z" fill="white"/>
<path d="M277.486 52.7525L277.473 71.7757C277.432 72.2912 276.934 72.2768 276.504 72.237L260.929 52.3491C260.126 51.2674 259.194 50.1007 259.183 48.6736V10.9128C259.156 9.80585 259.764 9.63944 260.721 9.55985C271.838 8.64097 284.045 10.4281 295.275 9.74977C309.734 11.1914 319.193 26.5898 313.361 40.0799C311.105 45.2965 306.767 47.9229 302.064 50.6488L318.435 72.4178L317.717 72.7814C311.72 72.3455 304.973 73.3313 299.068 72.7814C298.137 72.6946 297.677 72.1881 296.999 71.5966C292.591 66.2534 289.02 59.4071 284.591 54.1868C282.598 51.8372 280.301 52.085 277.484 52.7506L277.486 52.7525ZM277.951 24.2311C277.462 24.403 277.495 24.7484 277.452 25.1771C277.052 29.2162 277.779 33.9064 277.453 38.0179L277.822 38.7324L291.822 38.8011C298.895 37.108 298.312 25.2006 291.116 24.1949L277.949 24.2293L277.951 24.2311Z" fill="white"/>
<path d="M89.0614 10.2889C89.5498 10.3577 90.6297 10.8876 91.0241 11.2186C99.4447 21.9521 108.012 32.6259 116.138 43.5747C116.326 44.0504 116.429 44.5369 116.472 45.047C117.205 53.5177 115.908 63.0248 116.47 71.604C116.422 72.2859 116.042 72.8684 115.302 72.7833L69.1666 72.7707C54.2772 69.352 50.3229 46.7184 63.5915 38.8573C72.9636 33.306 84.3907 34.4112 94.8536 34.6663C95.9046 34.6916 98.5673 35.0136 98.542 33.5177C98.504 31.1716 97.1726 28.4078 95.2914 27.0041C90.2046 23.2093 75.9574 24.8101 69.5357 24.7413C68.2007 24.7269 66.8186 24.0703 66.0046 23.0139C63.7054 19.2299 60.3137 15.7443 57.9982 12.0435C57.8825 11.8572 56.8297 10.2871 57.5876 10.2871H89.0632L89.0614 10.2889ZM84.0488 47.0024C80.5955 47.1453 77.4425 47.0548 75.2555 50.1443C72.1713 54.4999 75.0529 60.3514 80.1976 60.8542C84.3491 61.2594 88.9836 60.7819 93.2273 60.8488C94.1155 60.8633 95.8377 61.5108 96.033 60.0511C95.7599 56.258 96.3677 52.0345 96.033 48.2957C95.9227 47.0566 95.4722 47.0422 94.3127 46.9427C91.2972 46.6876 87.1312 46.8739 84.0488 47.0024Z" fill="white"/>
<path d="M1.56112 9.4387C14.9979 10.5692 34.4712 6.20817 46.2655 13.646C59.8651 22.2216 59.5196 44.5839 45.3176 52.398C36.4592 57.2709 28.9919 54.9556 19.7717 55.7895C18.8401 55.8745 18.3517 56.182 18.2395 57.1479C17.7294 61.4891 18.7569 66.8992 18.2468 71.2404C18.178 71.8264 18.0008 72.2207 17.3912 72.3727L1.32596 72.4161C0.958745 72.3835 0.121206 72.0959 0.0018158 71.7504L0.0651287 10.1134C0.396165 9.54542 0.978643 9.55809 1.55931 9.4387H1.56112ZM18.9089 25.3128C18.368 25.4738 18.2757 26.494 18.2341 26.9878C17.9682 30.1496 17.9718 35.936 18.2341 39.1014C18.3354 40.3404 18.5362 40.5358 19.7717 40.6371C22.6063 40.8704 30.8533 40.8957 33.3551 40.0981C40.3593 37.866 39.5127 25.9658 31.3526 25.2839C27.3747 24.9511 22.9356 25.4973 18.9089 25.3165V25.3128Z" fill="white"/>
<path d="M216.284 9.7997C218.829 9.62244 224.54 9.26429 226.434 10.9374L252.649 44.5415C253.858 46.9997 251.832 52.882 250.723 55.3763C245.605 66.9021 234.56 72.0716 222.389 72.598C206.626 73.2799 191.854 66.8858 187.793 50.5956C182.537 29.5085 194.215 11.3372 216.286 9.79789L216.284 9.7997ZM218.272 24.6084C207.236 25.7317 201.907 36.5249 204.794 46.6271C209.269 62.2824 232.858 61.4015 235.775 44.7912C237.8 33.2654 230.457 23.3694 218.272 24.6084Z" fill="white"/>
<path d="M445.014 24.9599C444.815 25.1607 444.806 25.6219 444.782 25.9023L444.708 72.0595C444.538 72.4665 444.285 72.7993 443.803 72.7812L427.187 72.7378L426.657 72.1843C426.284 56.5164 426.714 40.7743 426.439 25.0811C426.354 24.6325 425.911 24.5963 425.528 24.5547C420.6 24.0301 414.757 25.0141 409.779 24.5619C409.112 24.5004 408.251 24.401 408.24 23.5707L408.287 10.2362C408.332 10.077 408.549 9.81832 408.69 9.73511C409.325 9.35707 412.726 9.60669 413.773 9.57232C429.71 9.06947 445.743 9.56509 461.712 9.37516C462.276 9.37516 462.919 9.52529 462.89 10.1855C462.504 14.5393 463.367 19.6727 462.89 23.9307C462.864 24.155 462.881 24.2852 462.703 24.4661C461.897 25.2927 445.773 24.1929 445.014 24.9563V24.9599Z" fill="white"/>
<path d="M384.68 9.60479L400.204 9.55957C400.872 9.65182 401.735 9.61926 401.876 10.4188L401.925 71.6072C401.941 72.2584 401.436 72.47 401.008 71.9618L385.197 51.808C384.593 50.9832 384.103 50.1728 383.868 49.1617L383.815 10.9108C383.796 10.2921 384.034 9.7513 384.677 9.60298L384.68 9.60479Z" fill="white"/>
<path d="M253.223 22.9305C252.933 23.323 248.677 18.1878 248.342 17.779C247.617 16.8909 242.709 10.5311 242.734 10.0174C242.756 9.59049 244.741 9.76956 245.171 9.74605C246.343 9.67912 246.964 9.74062 248.06 9.75509C248.941 9.76595 252.313 9.57421 252.783 9.91427C252.864 9.97396 253.223 10.5148 253.223 10.56V22.9305Z" fill="white"/>
<path d="M474.418 0.0484954C486.245 -1.04764 487.529 16.7927 475.99 17.6898C464.415 18.5888 462.975 1.11027 474.418 0.0484954ZM474.235 1.49012C464.88 2.60254 466.253 17.4058 476.336 16.2283C485.581 15.1485 484.362 0.28545 474.235 1.49012Z" fill="white"/>
<path d="M130.757 72.4122H123.069C122.702 72.4122 122.458 71.3993 122.427 71.0665C122.257 69.2324 122.216 64.8912 122.427 63.1023C122.577 61.8253 123.402 62.7749 123.878 63.2976C125.759 65.3597 127.834 68.3424 129.564 70.6251C129.976 71.1696 130.524 71.7774 130.757 72.4122Z" fill="white"/>
<path d="M258.921 72.4126C258.709 72.3764 258.288 71.9839 258.288 71.7813V62.9326C258.288 62.8892 258.454 62.6667 258.649 62.7499C259.225 62.9995 262.39 66.865 262.984 67.6355C263.577 68.4061 265.795 71.3146 265.988 72.0454C266.05 72.2787 265.918 72.2805 265.795 72.4126C263.722 72.1666 260.894 72.7436 258.921 72.4126Z" fill="white"/>
<path d="M384.009 62.9306C384.033 62.8529 384.213 62.7516 384.282 62.6611L384.711 62.6846L391.968 72.4124H384.461C384.402 72.4124 384.186 72.1737 384.009 72.2315V62.9306Z" fill="white"/>
<path d="M477.079 4.6899C479.138 4.9775 479.767 7.47185 478.418 8.91528C478.282 9.25172 477.206 9.28609 477.352 9.65328C477.408 9.79256 478.354 10.7964 478.582 11.1347C478.741 11.3716 479.83 13.0611 479.7 13.1768C479.087 13.09 478.065 13.3487 477.529 13.0882C476.661 12.6668 475.722 9.20469 473.913 9.74553V13.1768H472.104V4.6899C473.653 4.84546 475.581 4.48008 477.079 4.6899ZM476.536 6.31602C475.914 6.14418 474.63 6.44083 473.913 6.31602V8.30391C474.814 8.31838 477.575 8.55714 477.144 6.9889C477.108 6.85505 476.625 6.34134 476.536 6.31602Z" fill="white"/>
</g>
<defs>
<clipPath id="clip0_586_2437">
<rect width="484" height="73" fill="white"/>
</clipPath>
</defs>
</svg>
